<svg height='300px' width='300px'  fill="#000000" xmlns="http://www.w3.org/2000/svg" xmlns:xlink="http://www.w3.org/1999/xlink" xml:space="preserve" version="1.1" style="shape-rendering:geometricPrecision;text-rendering:geometricPrecision;image-rendering:optimizeQuality;" viewBox="0 0 419 776" x="0px" y="0px" fill-rule="evenodd" clip-rule="evenodd"><defs><style type="text/css">
   
    .fil0 {fill:#000000}
   
  </style></defs><g><path class="fil0" d="M309 382c67,36 110,107 110,185 0,115 -94,209 -210,209 -115,0 -209,-94 -209,-209 0,-78 43,-149 110,-185l0 -283c0,-54 45,-99 99,-99 55,0 100,45 100,99l0 283zm-130 -80l0 126 -21 8c-54,22 -89,73 -89,131 0,77 63,140 140,140 78,0 141,-63 141,-140 0,-58 -35,-109 -89,-131l-21 -8 0 -126 -61 0zm-33 198c20,0 36,16 36,36 0,21 -16,37 -36,37 -20,0 -36,-16 -36,-37 0,-20 16,-36 36,-36zm63 -465l0 0c36,0 65,29 65,64l0 305c65,26 110,89 110,163 0,96 -78,174 -175,174 -96,0 -174,-78 -174,-174 0,-74 45,-137 110,-163l0 -305c0,-35 29,-64 64,-64z"></path></g></svg>